<?xml version="1.0" encoding="utf-8"?>
<!-- Generator: Adobe Illustrator 16.0.0, SVG Export Plug-In . SVG Version: 6.00 Build 0)  -->
<!DOCTYPE svg PUBLIC "-//W3C//DTD SVG 1.1//EN" "http://www.w3.org/Graphics/SVG/1.1/DTD/svg11.dtd">
<svg version="1.1" id="down_1_" xmlns="http://www.w3.org/2000/svg" xmlns:xlink="http://www.w3.org/1999/xlink" x="0px" y="0px"
	 width="64px" height="64px" viewBox="0 0 64 64" enable-background="new 0 0 64 64" xml:space="preserve">
<g id="Down_x40_2x.png_1_">
	<g id="directdown_copy">
		<g>
			<path fill="#969899" d="M55.066,17.866c-0.533-0.934-1.467-1.533-2.533-1.6C52.398,16.199,42.398,15.6,32,15.6
				c-10.399,0-20.4,0.6-20.533,0.667c-1.066,0.066-2.066,0.666-2.533,1.6c-0.533,0.934-0.533,2.066,0,3
				c7.933,14.066,20.4,26.267,20.933,26.732c1.2,1.066,3.066,1.066,4.267,0c0.533-0.467,13-12.666,20.933-26.732
				C55.6,19.933,55.6,18.8,55.066,17.866z"/>
		</g>
	</g>
</g>
</svg>
